<?xml version="1.0" encoding="UTF-8"?>
<svg width="30mm" height="30mm" version="1.1" viewBox="0 0 106.29921 106.29921" xmlns="http://www.w3.org/2000/svg" xmlns:xlink="http://www.w3.org/1999/xlink">
 <defs>
  <pattern id="g" xlink:href="#e" patternTransform="scale(1.2255 1.2573)"/>
  <pattern id="e" width="10" height="10" patternTransform="translate(0) scale(10)" patternUnits="userSpaceOnUse">
   <circle cx="2.567" cy=".81" r=".45"/>
   <circle cx="3.048" cy="2.33" r=".45"/>
   <circle cx="4.418" cy="2.415" r=".45"/>
   <circle cx="1.844" cy="3.029" r=".45"/>
   <circle cx="6.08" cy="1.363" r=".45"/>
   <circle cx="5.819" cy="4.413" r=".45"/>
   <circle cx="4.305" cy="4.048" r=".45"/>
   <circle cx="5.541" cy="3.045" r=".45"/>
   <circle cx="4.785" cy="5.527" r=".45"/>
   <circle cx="2.667" cy="5.184" r=".45"/>
   <circle cx="7.965" cy="1.448" r=".45"/>
   <circle cx="7.047" cy="5.049" r=".45"/>
   <circle cx="4.34" cy=".895" r=".45"/>
   <circle cx="7.125" cy=".34" r=".45"/>
   <circle cx="9.553" cy="1.049" r=".45"/>
   <circle cx="7.006" cy="2.689" r=".45"/>
   <circle cx="8.909" cy="2.689" r=".45"/>
   <circle cx="9.315" cy="4.407" r=".45"/>
   <circle cx="7.82" cy="3.87" r=".45"/>
   <circle cx="8.27" cy="5.948" r=".45"/>
   <circle cx="7.973" cy="7.428" r=".45"/>
   <circle cx="9.342" cy="8.072" r=".45"/>
   <circle cx="8.206" cy="9.315" r=".45"/>
   <circle cx="9.682" cy="9.475" r=".45"/>
   <circle cx="9.688" cy="6.186" r=".45"/>
   <circle cx="3.379" cy="6.296" r=".45"/>
   <circle cx="2.871" cy="8.204" r=".45"/>
   <circle cx="4.59" cy="8.719" r=".45"/>
   <circle cx="3.181" cy="9.671" r=".45"/>
   <circle cx="5.734" cy="7.315" r=".45"/>
   <circle cx="6.707" cy="6.513" r=".45"/>
   <circle cx="5.73" cy="9.67" r=".45"/>
   <circle cx="6.535" cy="8.373" r=".45"/>
   <circle cx="4.37" cy="7.154" r=".45"/>
   <circle cx=".622" cy="7.25" r=".45"/>
   <circle cx=".831" cy="5.679" r=".45"/>
   <circle cx="1.257" cy="8.519" r=".45"/>
   <circle cx="1.989" cy="6.877" r=".45"/>
   <circle cx=".374" cy="3.181" r=".45"/>
   <circle cx="1.166" cy="1.664" r=".45"/>
   <circle cx="1.151" cy=".093" r=".45"/>
   <circle cx="1.151" cy="10.093" r=".45"/>
   <circle cx="1.302" cy="4.451" r=".45"/>
   <circle cx="3.047" cy="3.763" r=".45"/>
  </pattern>
  <pattern id="h" xlink:href="#f" patternTransform="scale(1.2255 1.2573)"/>
  <pattern id="f" width="10" height="10" patternTransform="translate(0) scale(10)" patternUnits="userSpaceOnUse">
   <circle cx="2.567" cy=".81" r=".45"/>
   <circle cx="3.048" cy="2.33" r=".45"/>
   <circle cx="4.418" cy="2.415" r=".45"/>
   <circle cx="1.844" cy="3.029" r=".45"/>
   <circle cx="6.08" cy="1.363" r=".45"/>
   <circle cx="5.819" cy="4.413" r=".45"/>
   <circle cx="4.305" cy="4.048" r=".45"/>
   <circle cx="5.541" cy="3.045" r=".45"/>
   <circle cx="4.785" cy="5.527" r=".45"/>
   <circle cx="2.667" cy="5.184" r=".45"/>
   <circle cx="7.965" cy="1.448" r=".45"/>
   <circle cx="7.047" cy="5.049" r=".45"/>
   <circle cx="4.34" cy=".895" r=".45"/>
   <circle cx="7.125" cy=".34" r=".45"/>
   <circle cx="9.553" cy="1.049" r=".45"/>
   <circle cx="7.006" cy="2.689" r=".45"/>
   <circle cx="8.909" cy="2.689" r=".45"/>
   <circle cx="9.315" cy="4.407" r=".45"/>
   <circle cx="7.82" cy="3.87" r=".45"/>
   <circle cx="8.27" cy="5.948" r=".45"/>
   <circle cx="7.973" cy="7.428" r=".45"/>
   <circle cx="9.342" cy="8.072" r=".45"/>
   <circle cx="8.206" cy="9.315" r=".45"/>
   <circle cx="9.682" cy="9.475" r=".45"/>
   <circle cx="9.688" cy="6.186" r=".45"/>
   <circle cx="3.379" cy="6.296" r=".45"/>
   <circle cx="2.871" cy="8.204" r=".45"/>
   <circle cx="4.59" cy="8.719" r=".45"/>
   <circle cx="3.181" cy="9.671" r=".45"/>
   <circle cx="5.734" cy="7.315" r=".45"/>
   <circle cx="6.707" cy="6.513" r=".45"/>
   <circle cx="5.73" cy="9.67" r=".45"/>
   <circle cx="6.535" cy="8.373" r=".45"/>
   <circle cx="4.37" cy="7.154" r=".45"/>
   <circle cx=".622" cy="7.25" r=".45"/>
   <circle cx=".831" cy="5.679" r=".45"/>
   <circle cx="1.257" cy="8.519" r=".45"/>
   <circle cx="1.989" cy="6.877" r=".45"/>
   <circle cx=".374" cy="3.181" r=".45"/>
   <circle cx="1.166" cy="1.664" r=".45"/>
   <circle cx="1.151" cy=".093" r=".45"/>
   <circle cx="1.151" cy="10.093" r=".45"/>
   <circle cx="1.302" cy="4.451" r=".45"/>
   <circle cx="3.047" cy="3.763" r=".45"/>
  </pattern>
 </defs>
 <g fill-rule="evenodd">
  <g transform="matrix(.93481 -.28064 .28347 .92549 -9.2064 -9.3263)">
   <path d="m0.79624 36.23c2.3158-3.2955 5.6585-5.9064 9.2364-8.3605 4.6182-4.1367 9.2364-5.6623 13.855-7.8031 0.92808 0.08655 1.9014-0.18895 2.6276 1.5129 1.0638 2.8155 0.52805 4.0315 0.15925 5.4144l11.068 23.011 9.8734 17.756 5.3581 1.5105 4.7541 1.7541c6.3699-0.45129 12.74-1.4374 19.11-0.71662l11.784 4.0608c4.0922 2.548 3.7409 5.0959 5.1755 7.6439 1.5592 1.5681 2.573 2.8332 2.2295 3.3442-0.74925 1.4741-1.6926 2.56-2.8665 3.185-3.0331 2.6021-4.9081 6.0729-10.271 6.9273-3.4312 1.2119-6.7339 1.6532-9.953 1.5925l-20.702-0.71661-19.587 2.3091c-4.5982-0.44404-5.5136-4.3772-7.9624-7.1661-1.0905-4.3041-1.6062-8.9814-1.6721-13.695l-4.2997-12.899-8.042-13.138-4.9367-10.351c-4.5748-1.1995-4.4942-3.3562-4.9367-5.1755z" fill="#fff" stroke="#fc0" stroke-width=".29055"/>
   <path d="m22.838 77.03s-3.2504-9.6666-6.7068-16.549c-3.805-7.5766-10.314-14.707-12.54-20.992-2.8771-8.1248 22.966-6.3929 24.357-5.1791 0.87796 0.76601 2.9945 2.4039 3.6937 8.4544 0.4869 4.2132-0.81822 11.605 0.92559 17.975 3.1847 11.634 5.1076 28.474 6.8293 27.815 2.9128-1.1149 7.6695-1.1841 10.444-1.1944 10.047-0.03723 18.11 3.6255 27.957 1.6315 4.165-0.84346 8.0097 0.94542 11.381-1.6419 0.83586-0.6415 2.0702-2.3887 2.0702-2.3887 0.74134-0.53265 0.6179-0.81534 3.8219 1.1147 0 0-1.3801 1.5394-2.3887 2.548-1.9641 1.9641-3.3453 3.5173-5.7329 4.9367-2.0935 1.2445-4.7531 2.6959-7.1661 3.0257-6.7328 0.92018-13.592-0.53842-20.384-0.3185-7.9308 0.25681-16.01 1.5906-23.887 2.548-3.1193 0.37913-6.9314-0.81169-9.5549-3.6627-1.6829-1.8288-2.1168-4.5593-2.548-7.0069-0.30393-1.7252-0.57119-11.115-0.57119-11.115z" fill="url(#h)"/>
   <path d="m23.961 19.395c-0.43484 0.01293-0.85658 0.08009-1.2637 0.16016-1.3292 0.26143-2.8674 1.0518-4.8418 2.1484s-4.2517 2.5045-6.4707 3.9785-4.3743 3.0122-6.1055 4.3789-2.738 2.5574-3.6836 3.5625c-1.3714 1.4576-1.7472 1.9904-1.6882 3.034 0.059005 1.0436 0.57568 2.0569 0.85111 2.6603 0.60348 1.3221 2.7659 1.993 4.184 2.6641 2.462 5.2006 4.1468 10.563 7.6142 15.257 3.8997 5.2792 5.9609 9.3919 7.5115 13.412 0.57198 1.4829 1.2571 3.1559 1.5176 4.4219 0.33127 1.6098 0.35925 3.4164 0.53711 5.3457 0.26992 2.928-0.37352 6.4346 0.86328 9.916 1.1394 3.2071 2.7514 7.1511 6.3125 9.002 3.6 1.8711 7.5383 0.29968 10.463 0.04297 3.8915-0.34158 7.4604-1.504 10.92-1.8027 8.1922-0.70745 19.656 1.0189 28.455-0.23438 2.5079-0.35723 5.2355-0.82608 7.6934-2.1895 2.8261-1.5676 4.7073-4.0517 6.625-5.9844 0.34391-0.34661 1.0306-0.7963 1.7324-1.3926 0.70186-0.59628 1.5338-1.4918 1.6035-2.7949 0.03611-0.67498-0.23934-1.2882-0.53516-1.6875-0.29581-0.39931-0.60791-0.65823-0.86523-0.87891-0.51464-0.44135-0.67522-0.72364-0.65039-0.5957-0.61446-3.1656-1.9944-5.4229-3.7324-7.0352s-3.7646-2.5993-5.7109-3.541c-4.5416-2.1975-11.365-2.5593-17.188-2.5176-5.5033 0.03943-10.568 0.68424-11.053 0.73735-0.71852-0.61586-2.3479-0.4155-3.7559-1.0979-1.4562-0.70575-2.2035-1.8938-4.9394-1.8839-0.46941-0.76251-4.9169-8.3523-7.206-12.498-1.8521-3.3547-3.1526-7.0964-4.8616-10.578-0.99239-2.0214-3.0413-4.5789-4.305-7.2626-2.3066-4.8986-3.7607-9.846-3.8747-10.093 0.34919-1.8338 0.095-3.419-0.51172-4.5293-0.53088-0.97151-1.3749-1.6895-2.2969-1.9609-0.46099-0.1357-0.90892-0.177-1.3438-0.16406zm0.90128 1.9691c0.85658 0.22345 0.54222 0.62998 0.76862 1.3958 0.24947 0.84387 0.14015 1.6416-0.30662 3.1995-0.0934 0.32665-0.06637 0.67598 0.07617 0.98438 0 0 5.4567 11.82 8.3477 17.709 1.7088 3.4806 3.7464 6.589 5.6427 10.024 2.4927 4.5148 7.2351 13.112 7.4862 13.519 0.26963 0.43703 0.75456 0.6944 1.2676 0.67188 2.9522-0.12964 3.5601 1.0896 4.7154 1.6496 1.1553 0.55994 2.2957-0.19446 3.0088 0.85705 0.29405 0.43365 0.70899 0.50213 1.6003 0.30078 0.35293-0.07972 5.0016-0.07545 10.66-0.11599 4.5664-0.03272 9.7775 0.32469 13.514 1.3711-0.01246 0.72496-0.04539 1.7758-0.16602 3.2051-0.18808 2.2285-0.62017 4.8709-1.3047 6.2324-0.07326 0.14572-0.16402 1.0695-0.7359 1.4962s-1.7284 0.37911-1.7719 0.38072c-4.9711 0.18402-9.6153 0.36962-15.069 0.21332-5.3048-0.15203-10.558 0.0513-15.57-0.99609-1.8944-0.39594-4.4161-0.72273-6.2501-1.1158s-3.2206-1.4488-3.7593-2.7485c-1.0993-2.6523-2.5792-7.4958-4.8226-11.562-1.5765-2.8573-2.7931-5.4621-4.7812-11.232-1.1729-3.4042-2.9485-6.4399-5.502-9.0078-0.98051-0.98605-1.4992-2.366-1.9414-3.9492-0.44218-1.5833-0.79368-3.3395-1.6133-4.9492-0.9224-1.8117-1.471-4.6424-3.8398-5.9961-0.56968-0.32555-1.4675-1.4764-2.0879-2.5371-0.32726-0.55956-0.58257-1.0592-0.76367-1.4316 0.43439-0.2973-0.01561-0.02205 1.2891-0.88867 1.3047-0.86662 4.3965-2.8156 6.2793-3.8613s2.5909-1.8094 3.4942-2.1244c0.42628-0.14866 1.7294-0.79961 2.1356-0.69363zm-14.667 8.5797c0.18912 0.37901 0.41136 0.81558 0.70313 1.3145 0.67963 1.1621 1.5264 2.4872 2.7383 3.1797 1.4656 0.83754 2.0592 3.1397 3.1406 5.2637 0.66995 1.3158 1.0197 2.9572 1.4844 4.6211s1.0582 3.3808 2.3926 4.7227c2.3521 2.3654 3.9824 5.1423 5.082 8.334 2.0074 5.8263 3.2928 8.5928 4.9043 11.514 1.7768 3.2204 3.2561 6.9574 4.3906 9.7832-0.6323 5.4578-3.0232 8.4196-5.3105 11.295-1.236 1.5537-0.8209 2.2057 0.92926 0.68902 1.3384-1.1598 2.667-2.9747 3.7785-4.9704 0.85519-1.5354 1.3574-3.334 1.8142-5.2335 1.0141 1.3902 2.7763 3.0579 4.48 3.423 2.0526 0.43994 4.2773 0.53151 5.9395 0.87891 5.2975 1.1072 10.7 0.88159 15.922 1.0312 5.4272 0.15554 10.075 0.41429 15.146 0.22656 0.91133-0.03374 1.7705-0.11926 2.4854-0.65266 0.71489-0.5334 1.1821-1.4929 1.538-2.2009 0.93451-1.8587 1.2909-4.5638 1.4863-6.8789 0.09129-1.0817 0.13067-2.0329 0.1543-2.7832 0.23245 0.09421 0.45631 0.19055 0.66797 0.29297 1.9288 0.93328 3.6717 1.8198 5.0176 3.0684 1.3459 1.2485 2.522 2.2021 3.0382 4.8611 0.24516 1.2631 1.4472 1.8909 1.9064 2.2847 0.18831 0.1615 0.99418 0.55854 0.99051 1.0584-7e-3 0.95208-1.0276 1.2535-1.4645 1.6247-0.48506 0.41209-1.6603 0.98491-2.3461 1.6761-2.0872 2.1036-3.6032 3.1171-5.7494 4.3076-1.9065 1.0575-4.1264 2.4722-6.5595 2.8188-8.0726 1.1499-19.552-0.98184-28.339-0.22309-3.8933 0.33621-7.5828 0.98144-11.043 1.2852-3.5071 0.30784-6.3395 0.57779-8.4683-0.52866-2.3327-1.2124-4.4223-3.5097-5.5066-6.5616-0.90654-2.5518-0.79318-5.6596-1.111-9.1071-0.16157-1.7527-0.41827-3.639-0.82871-5.6516-0.34227-1.6782-0.82054-3.355-1.3541-4.7727-1.4757-3.9209-3.0874-8.7854-7.2495-14.42-3.4564-4.6791-5.8805-9.0065-8.3121-14.215-0.14203-0.30478-0.4674-0.74821-0.77298-0.88851-1.5424-0.70784-2.5353-1.5522-2.8105-1.8322-0.54136-0.55084-0.94477-1.2643-0.95942-1.5233-0.014644-0.259 0.86057-1.0048 1.8948-1.9898 0.17443-0.16613 1.3565-1.4818 3-2.7793 0.92509-0.73032 2.0132-1.5286 3.1602-2.3418z" color="#000000" color-rendering="auto" image-rendering="auto" shape-rendering="auto" solid-color="#000000" style="block-progression:tb;isolation:auto;mix-blend-mode:normal;text-decoration-color:#000000;text-decoration-line:none;text-decoration-style:solid;text-indent:0;text-transform:none;white-space:normal"/>
   <path d="m20.893 22.008c1.5856 1.5935 1.752 3.3936 1.8008 5.5488-0.64068 0.35791-1.2486 0.71186-1.959 1.1211-0.37126-1.1096-0.71064-2.0264-1.123-2.748-0.53111-0.92933-1.206-1.6353-2.1719-2.3906-0.60595 0.44721-0.90123 0.69411-0.87305 1.1172 0.88681 0.6935 1.3805 1.2173 1.8145 1.9766 0.36508 0.63881 0.70355 1.5562 1.1055 2.7754-0.82055 0.48404-1.6092 0.95003-2.373 1.4316-1.1888-2.1034-1.7825-3.2523-2.7832-4.7676-0.50486 0.12171-0.81977 0.51427-1.1836 0.78125 0.97508 1.4765 1.5473 2.5943 2.7734 4.7598-0.35219 0.23499-0.71674 0.47525-1.0195 0.69336-0.97521 0.70247-2.1915 1.7205-3.4453 2.8145-0.38301-0.31157-1.4705-1.4579-2.3906-2.498-0.46511-0.52578-1.0972-1.3141-1.4158-1.6956-0.60786 0.26541-0.87153 0.53378-1.0879 0.9082 0.33023 0.39544 0.96775 1.1916 1.4412 1.7268 0.85987 0.97202 1.7559 1.9534 2.3926 2.5098-0.90718 0.81119-1.7308 1.5487-2.5312 2.2949l-3.9375-4.8086c-0.13446-0.16906-0.33868-0.26758-0.55469-0.26758-0.60089 0.0018-0.92707 0.70359-0.54102 1.1641l3.9961 4.8867c-1.1983 1.1327-2.1406 2.0391-2.1406 2.0391l0.98828 1.0156s1.28-1.2018 2.0918-1.9727c1.1292 1.2874 2.2713 2.5168 3.1191 3.8691 1.4306 2.282 2.086 5.1527 3.5918 7.748 1.5039 2.5922 3.8556 4.5636 5.1404 6.9347 1.3903 2.5657 1.7477 5.513 3.1381 8.3885 1.122 2.3205 3.5321 6.2574 3.784 6.6572 0.50391 0.79948 1.1401 0.29698 0.63619-0.5025-0.25195-0.39974-2.3096-4.3596-3.3399-6.4904-1.2797-2.6465-1.6374-5.8713-3.1693-8.6985-1.4342-2.6468-3.6047-4.6556-4.9648-7-1.3596-2.3434-2.013-5.2353-3.6152-7.791-0.96039-1.5319-2.1724-2.8091-3.2949-4.084 0.90449-0.84542 1.557-1.4321 2.6113-2.375 1.2265 1.5111 1.8804 3.7159 2.8164 5.7773 1.0445 2.3002 1.39 5.0699 2.7207 7.584 1.6088 3.0396 4.2378 5.2242 5.7539 7.9004 1.2653 2.2335 1.954 4.8629 3.127 7.3809 1.0344 2.2206 3.2655 5.945 3.4783 6.3667 0.43444 0.8611 1.2708 0.51639 0.80153-0.32625-0.22984-0.41271-2.3396-4.4504-3.3325-6.5818-1.0997-2.3608-1.4543-5.0894-2.8419-7.5387-1.6887-2.9808-4.2997-5.1584-5.7324-7.8652-1.1687-2.208-1.5192-4.9415-2.6836-7.5059-0.87399-1.9248-1.5115-4.3322-3.0449-6.1445 1.2112-1.0576 2.0323-1.8874 2.9259-2.5311 0.267-0.19233 0.93636-0.54838 1.2499-0.75794 0.36066 0.53698 2.7606 4.1258 3.5293 6.1504 0.90327 2.3789 1.0096 5.4643 3.0723 7.6641 1.7737 1.8916 2.8763 4.4536 4.168 6.9375 1.0019 1.9267 2.4748 4.4273 3.6992 6.9894 2.1266 4.4501 3.9013 8.8588 4.0141 9.1368 0.35552 0.87618 1.0223 0.76532 0.66697-0.11093-0.17769-0.43817-4.2977-11.238-7.1224-16.67-1.2565-2.4162-2.3865-5.1146-4.3906-7.252-1.5995-1.7058-1.7659-4.52-2.7832-7.1992-0.86927-2.2893-3.1094-5.6215-3.6582-6.4238 0.67554-0.42511 1.3783-0.84206 2.1133-1.2773 1.8462 5.6456 4.9459 13.29 8.4336 17.736 2.8856 3.6784 3.5933 9.1478 5.8906 13.73 0.60852 1.2139 1.7354 2.3675 2.4202 3.6548 0.68477 1.2874 0.88255 2.7754 0.88255 3.2338 0 0.94531 0.71419 0.91716 0.71419-0.02815 0-1.1181 0.08376-2.2834-0.6263-3.6183-0.71005-1.3349-1.8924-2.574-2.4609-3.708-2.1384-4.2656-2.4816-10.03-5.7052-14.14-3.302-4.2092-6.4921-12.013-8.2988-17.592 0.56966-0.32937 1.038-0.61167 1.5742-0.91406 0.26647 2.9907 1.5196 6.5052 3.8398 9.0605 2.3956 2.6383 4.5635 7.7842 6.3105 11.219 1.8788 3.6935 2.3192 7.3593 4.3984 11.271 1.2843 2.4165 4.0527 6.0546 4.3138 6.4485 0.52215 0.7877 1.2251 0.39866 0.70307-0.38908-0.26105-0.39389-2.7909-4.3284-3.9901-6.5847-1.9416-3.6532-2.1559-7.446-4.1615-11.389-1.6978-3.3377-3.8134-8.5425-6.5254-11.529-2.2122-2.4363-3.4078-6.0894-3.5156-8.8633 1.1956-0.65721 2.7598-1.5195 2.7598-1.5195l-0.66406-1.252s-0.94466 0.51015-2.1621 1.1777c-0.09883-2.0189-0.45448-4.0435-2.1836-5.7812-0.77324 0.01577-0.99375 0.51173-1.0039 1z" color="#000000" color-rendering="auto" image-rendering="auto" shape-rendering="auto" solid-color="#000000" style="block-progression:tb;isolation:auto;mix-blend-mode:normal;text-decoration-color:#000000;text-decoration-line:none;text-decoration-style:solid;text-indent:0;text-transform:none;white-space:normal"/>
  </g>
  <g transform="matrix(.98874 .14964 -.14964 .98874 6.5677 -6.3362)">
   <path d="m0.79624 36.23c2.3158-3.2955 5.6585-5.9064 9.2364-8.3605 4.6182-4.1367 9.2364-5.6623 13.855-7.8031 0.92808 0.08655 1.9014-0.18895 2.6276 1.5129 1.0638 2.8155 0.52805 4.0315 0.15925 5.4144l11.068 23.011 9.8734 17.756 5.4144 0.15925 4.6978 3.1053c6.3699-0.45129 12.74-1.4374 19.11-0.71662l11.784 4.0608c4.0922 2.548 3.7409 5.0959 5.1755 7.6439 1.5592 1.5681 2.573 2.8332 2.2295 3.3442-0.74925 1.4741-1.6926 2.56-2.8665 3.185-3.0331 2.6021-4.9081 6.0729-10.271 6.9273-3.4312 1.2119-6.7339 1.6532-9.953 1.5925l-20.702-0.71661-19.587 2.3091c-4.5982-0.44404-5.5136-4.3772-7.9624-7.1661-1.0905-4.3041-1.6062-8.9814-1.6721-13.695l-4.2997-12.899-8.042-13.138-4.9367-10.351c-4.5748-1.1995-4.4942-3.3562-4.9367-5.1755z" fill="#fff" stroke="#fc0" stroke-width=".29055"/>
   <path d="m23.728 78.59s1.3324 8.4601 4.7774 11.466c2.5576 2.2315 5.9001 4.6294 10.022 3.0517 2.9128-1.1149 6.3132-1.7675 9.0878-1.7777 10.047-0.03723 20.251 3.5865 30.098 1.5925 4.165-0.84346 8.0946-2.9864 11.466-5.5737 0.83586-0.6415 2.0702-2.3887 2.0702-2.3887 0.74134-0.53265 0.6179-0.81534 3.8219 1.1147 0 0-1.3801 1.5394-2.3887 2.548-1.9641 1.9641-3.3453 3.5173-5.7329 4.9367-2.0935 1.2445-4.7531 2.6959-7.1661 3.0257-6.7328 0.92018-13.592-0.53842-20.384-0.3185-7.9308 0.25681-16.01 1.5906-23.887 2.548-3.1193 0.37913-6.9314-0.81169-9.5549-3.6627-1.6829-1.8288-2.1168-4.5593-2.548-7.0069-0.30393-1.7252 0.3185-9.5549 0.3185-9.5549z" fill="url(#g)"/>
   <path d="m23.961 19.395c-0.43484 0.01293-0.85658 0.08009-1.2637 0.16016-1.3292 0.26143-2.8674 1.0518-4.8418 2.1484s-4.2517 2.5045-6.4707 3.9785-4.3743 3.0122-6.1055 4.3789-2.738 2.5574-3.6836 3.5625c-1.3714 1.4576-1.7472 1.9904-1.6882 3.034 0.059005 1.0436 0.57568 2.0569 0.85111 2.6603 0.60348 1.3221 2.7659 1.993 4.184 2.6641 2.462 5.2006 4.1468 10.563 7.6142 15.257 3.8997 5.2792 5.9609 9.3919 7.5115 13.412 0.57198 1.4829 1.2571 3.1559 1.5176 4.4219 0.33127 1.6098 0.35925 3.4164 0.53711 5.3457 0.26992 2.928-0.37352 6.4346 0.86328 9.916 1.1394 3.2071 2.7514 7.1511 6.3125 9.002 3.6 1.8711 7.5383 0.29968 10.463 0.04297 3.8915-0.34158 7.4604-1.504 10.92-1.8027 8.1922-0.70745 19.656 1.0189 28.455-0.23438 2.5079-0.35723 5.2355-0.82608 7.6934-2.1895 2.8261-1.5676 4.7073-4.0517 6.625-5.9844 0.34391-0.34661 1.0306-0.7963 1.7324-1.3926 0.70186-0.59628 1.5338-1.4918 1.6035-2.7949 0.03611-0.67498-0.23934-1.2882-0.53516-1.6875-0.29581-0.39931-0.60791-0.65823-0.86523-0.87891-0.51464-0.44135-0.67522-0.72364-0.65039-0.5957-0.61446-3.1656-1.9944-5.4229-3.7324-7.0352s-3.7646-2.5993-5.7109-3.541c-4.5416-2.1975-11.365-2.5593-17.188-2.5176-5.5033 0.03943-9.6668 1.1347-10.153 1.1878-0.71852-0.61586-2.179-1.6542-3.587-2.3365-1.4562-0.70575-3.2732-1.1055-6.0092-1.0957-0.46941-0.76251-4.9169-8.3523-7.206-12.498-1.8521-3.3547-3.1526-7.0964-4.8616-10.578-0.99239-2.0214-3.0413-4.5789-4.305-7.2626-2.3066-4.8986-3.7607-9.846-3.8747-10.093 0.34919-1.8338 0.095-3.419-0.51172-4.5293-0.53088-0.97151-1.3749-1.6895-2.2969-1.9609-0.46099-0.1357-0.90892-0.177-1.3438-0.16406zm0.90128 1.9691c0.85658 0.22345 0.54222 0.62998 0.76862 1.3958 0.24947 0.84387 0.14015 1.6416-0.30662 3.1995-0.0934 0.32665-0.06637 0.67598 0.07617 0.98438 0 0 5.4567 11.82 8.3477 17.709 1.7088 3.4806 3.7464 6.589 5.6427 10.024 2.4927 4.5148 7.2351 13.112 7.4862 13.519 0.26963 0.43703 0.75456 0.6944 1.2676 0.67188 2.9522-0.12964 4.6298 0.30138 5.7852 0.86133 1.1553 0.55994 2.1268 1.0442 2.8398 2.0957 0.29405 0.43365 0.70899 0.50213 1.6003 0.30078 0.35293-0.07972 4.1007-0.52587 9.759-0.56641 4.5664-0.03272 9.7775 0.32469 13.514 1.3711-0.01246 0.72496-0.04539 1.7758-0.16602 3.2051-0.18808 2.2285-0.62017 4.8709-1.3047 6.2324-0.07326 0.14572-0.16402 1.0695-0.7359 1.4962s-1.7284 0.37911-1.7719 0.38072c-4.9711 0.18402-9.6153 0.36962-15.069 0.21332-5.3048-0.15203-10.558 0.0513-15.57-0.99609-1.8944-0.39594-4.4161-0.72273-6.2501-1.1158s-3.2206-1.4488-3.7593-2.7485c-1.0993-2.6523-2.5792-7.4958-4.8226-11.562-1.5765-2.8573-2.7931-5.4621-4.7812-11.232-1.1729-3.4042-2.9485-6.4399-5.502-9.0078-0.98051-0.98605-1.4992-2.366-1.9414-3.9492-0.44218-1.5833-0.79368-3.3395-1.6133-4.9492-0.9224-1.8117-1.471-4.6424-3.8398-5.9961-0.56968-0.32555-1.4675-1.4764-2.0879-2.5371-0.32726-0.55956-0.58257-1.0592-0.76367-1.4316 0.43439-0.2973-0.01561-0.02205 1.2891-0.88867 1.3047-0.86662 4.3965-2.8156 6.2793-3.8613s2.5909-1.8094 3.4942-2.1244c0.42628-0.14866 1.7294-0.79961 2.1356-0.69363zm-14.667 8.5797c0.18912 0.37901 0.41136 0.81558 0.70313 1.3145 0.67963 1.1621 1.5264 2.4872 2.7383 3.1797 1.4656 0.83754 2.0592 3.1397 3.1406 5.2637 0.66995 1.3158 1.0197 2.9572 1.4844 4.6211s1.0582 3.3808 2.3926 4.7227c2.3521 2.3654 3.9824 5.1423 5.082 8.334 2.0074 5.8263 3.2928 8.5928 4.9043 11.514 1.7768 3.2204 3.2561 6.9574 4.3906 9.7832-0.6323 5.4578-3.0232 8.4196-5.3105 11.295-1.236 1.5537-0.8209 2.2057 0.92926 0.68902 1.3384-1.1598 2.667-2.9747 3.7785-4.9704 0.85519-1.5354 1.3574-3.334 1.8142-5.2335 1.0141 1.3902 2.7763 3.0579 4.48 3.423 2.0526 0.43994 4.2773 0.53151 5.9395 0.87891 5.2975 1.1072 10.7 0.88159 15.922 1.0312 5.4272 0.15554 10.075 0.41429 15.146 0.22656 0.91133-0.03374 1.7705-0.11926 2.4854-0.65266 0.71489-0.5334 1.1821-1.4929 1.538-2.2009 0.93451-1.8587 1.2909-4.5638 1.4863-6.8789 0.09129-1.0817 0.13067-2.0329 0.1543-2.7832 0.23245 0.09421 0.45631 0.19055 0.66797 0.29297 1.9288 0.93328 3.6717 1.8198 5.0176 3.0684 1.3459 1.2485 2.522 2.2021 3.0382 4.8611 0.24516 1.2631 1.4472 1.8909 1.9064 2.2847 0.18831 0.1615 0.99418 0.55854 0.99051 1.0584-7e-3 0.95208-1.0276 1.2535-1.4645 1.6247-0.48506 0.41209-1.6603 0.98491-2.3461 1.6761-2.0872 2.1036-3.6032 3.1171-5.7494 4.3076-1.9065 1.0575-4.1264 2.4722-6.5595 2.8188-8.0726 1.1499-19.552-0.98184-28.339-0.22309-3.8933 0.33621-7.5828 0.98144-11.043 1.2852-3.5071 0.30784-6.3395 0.57779-8.4683-0.52866-2.3327-1.2124-4.4223-3.5097-5.5066-6.5616-0.90654-2.5518-0.79318-5.6596-1.111-9.1071-0.16157-1.7527-0.41827-3.639-0.82871-5.6516-0.34227-1.6782-0.82054-3.355-1.3541-4.7727-1.4757-3.9209-3.0874-8.7854-7.2495-14.42-3.4564-4.6791-5.8805-9.0065-8.3121-14.215-0.14203-0.30478-0.4674-0.74821-0.77298-0.88851-1.5424-0.70784-2.5353-1.5522-2.8105-1.8322-0.54136-0.55084-0.94477-1.2643-0.95942-1.5233-0.014644-0.259 0.86057-1.0048 1.8948-1.9898 0.17443-0.16613 1.3565-1.4818 3-2.7793 0.92509-0.73032 2.0132-1.5286 3.1602-2.3418z" color="#000000" color-rendering="auto" image-rendering="auto" shape-rendering="auto" solid-color="#000000" style="block-progression:tb;isolation:auto;mix-blend-mode:normal;text-decoration-color:#000000;text-decoration-line:none;text-decoration-style:solid;text-indent:0;text-transform:none;white-space:normal"/>
   <path d="m20.893 22.008c1.5856 1.5935 1.752 3.3936 1.8008 5.5488-0.64068 0.35791-1.2486 0.71186-1.959 1.1211-0.37126-1.1096-0.71064-2.0264-1.123-2.748-0.53111-0.92933-1.206-1.6353-2.1719-2.3906-0.60595 0.44721-0.90123 0.69411-0.87305 1.1172 0.88681 0.6935 1.3805 1.2173 1.8145 1.9766 0.36508 0.63881 0.70355 1.5562 1.1055 2.7754-0.82055 0.48404-1.6092 0.95003-2.373 1.4316-1.1888-2.1034-1.7825-3.2523-2.7832-4.7676-0.50486 0.12171-0.81977 0.51427-1.1836 0.78125 0.97508 1.4765 1.5473 2.5943 2.7734 4.7598-0.35219 0.23499-0.71674 0.47525-1.0195 0.69336-0.97521 0.70247-2.1915 1.7205-3.4453 2.8145-0.38301-0.31157-1.4705-1.4579-2.3906-2.498-0.46511-0.52578-1.0972-1.3141-1.4158-1.6956-0.60786 0.26541-0.87153 0.53378-1.0879 0.9082 0.33023 0.39544 0.96775 1.1916 1.4412 1.7268 0.85987 0.97202 1.7559 1.9534 2.3926 2.5098-0.90718 0.81119-1.7308 1.5487-2.5312 2.2949l-3.9375-4.8086c-0.13446-0.16906-0.33868-0.26758-0.55469-0.26758-0.60089 0.0018-0.92707 0.70359-0.54102 1.1641l3.9961 4.8867c-1.1983 1.1327-2.1406 2.0391-2.1406 2.0391l0.98828 1.0156s1.28-1.2018 2.0918-1.9727c1.1292 1.2874 2.2713 2.5168 3.1191 3.8691 1.4306 2.282 2.086 5.1527 3.5918 7.748 1.5039 2.5922 3.8556 4.5636 5.1404 6.9347 1.3903 2.5657 1.7477 5.513 3.1381 8.3885 1.122 2.3205 3.5321 6.2574 3.784 6.6572 0.50391 0.79948 1.1401 0.29698 0.63619-0.5025-0.25195-0.39974-2.3096-4.3596-3.3399-6.4904-1.2797-2.6465-1.6374-5.8713-3.1693-8.6985-1.4342-2.6468-3.6047-4.6556-4.9648-7-1.3596-2.3434-2.013-5.2353-3.6152-7.791-0.96039-1.5319-2.1724-2.8091-3.2949-4.084 0.90449-0.84542 1.557-1.4321 2.6113-2.375 1.2265 1.5111 1.8804 3.7159 2.8164 5.7773 1.0445 2.3002 1.39 5.0699 2.7207 7.584 1.6088 3.0396 4.2378 5.2242 5.7539 7.9004 1.2653 2.2335 1.954 4.8629 3.127 7.3809 1.0344 2.2206 3.2655 5.945 3.4783 6.3667 0.43444 0.8611 1.2708 0.51639 0.80153-0.32625-0.22984-0.41271-2.3396-4.4504-3.3325-6.5818-1.0997-2.3608-1.4543-5.0894-2.8419-7.5387-1.6887-2.9808-4.2997-5.1584-5.7324-7.8652-1.1687-2.208-1.5192-4.9415-2.6836-7.5059-0.87399-1.9248-1.5115-4.3322-3.0449-6.1445 1.2112-1.0576 2.0323-1.8874 2.9259-2.5311 0.267-0.19233 0.93636-0.54838 1.2499-0.75794 0.36066 0.53698 2.7606 4.1258 3.5293 6.1504 0.90327 2.3789 1.0096 5.4643 3.0723 7.6641 1.7737 1.8916 2.8763 4.4536 4.168 6.9375 1.0019 1.9267 2.4748 4.4273 3.6992 6.9894 2.1266 4.4501 3.9013 8.8588 4.0141 9.1368 0.35552 0.87618 1.0223 0.76532 0.66697-0.11093-0.17769-0.43817-4.2977-11.238-7.1224-16.67-1.2565-2.4162-2.3865-5.1146-4.3906-7.252-1.5995-1.7058-1.7659-4.52-2.7832-7.1992-0.86927-2.2893-3.1094-5.6215-3.6582-6.4238 0.67554-0.42511 1.3783-0.84206 2.1133-1.2773 1.8462 5.6456 4.9459 13.29 8.4336 17.736 2.8856 3.6784 3.5933 9.1478 5.8906 13.73 0.60852 1.2139 1.7354 2.3675 2.4202 3.6548 0.68477 1.2874 0.88255 2.7754 0.88255 3.2338 0 0.94531 0.71419 0.91716 0.71419-0.02815 0-1.1181 0.08376-2.2834-0.6263-3.6183-0.71005-1.3349-1.8924-2.574-2.4609-3.708-2.1384-4.2656-2.4816-10.03-5.7052-14.14-3.302-4.2092-6.4921-12.013-8.2988-17.592 0.56966-0.32937 1.038-0.61167 1.5742-0.91406 0.26647 2.9907 1.5196 6.5052 3.8398 9.0605 2.3956 2.6383 4.5635 7.7842 6.3105 11.219 1.8788 3.6935 2.3192 7.3593 4.3984 11.271 1.2843 2.4165 4.0527 6.0546 4.3138 6.4485 0.52215 0.7877 1.2251 0.39866 0.70307-0.38908-0.26105-0.39389-2.7909-4.3284-3.9901-6.5847-1.9416-3.6532-2.1559-7.446-4.1615-11.389-1.6978-3.3377-3.8134-8.5425-6.5254-11.529-2.2122-2.4363-3.4078-6.0894-3.5156-8.8633 1.1956-0.65721 2.7598-1.5195 2.7598-1.5195l-0.66406-1.252s-0.94466 0.51015-2.1621 1.1777c-0.09883-2.0189-0.45448-4.0435-2.1836-5.7812-0.77324 0.01577-0.99375 0.51173-1.0039 1z" color="#000000" color-rendering="auto" image-rendering="auto" shape-rendering="auto" solid-color="#000000" style="block-progression:tb;isolation:auto;mix-blend-mode:normal;text-decoration-color:#000000;text-decoration-line:none;text-decoration-style:solid;text-indent:0;text-transform:none;white-space:normal"/>
  </g>
 </g>
</svg>
